<svg width="700" height="700" viewBox="0 0 700 700" fill="none" xmlns="http://www.w3.org/2000/svg">
<path d="M352.6 543.6C478.521 543.6 580.6 451.46 580.6 337.8C580.6 224.14 478.521 132 352.6 132C226.679 132 124.6 224.14 124.6 337.8C124.6 451.46 226.679 543.6 352.6 543.6Z" fill="#8FE3F9"/>
<path d="M352.6 543.6C478.521 543.6 580.6 451.46 580.6 337.8C580.6 224.14 478.521 132 352.6 132C226.679 132 124.6 224.14 124.6 337.8C124.6 451.46 226.679 543.6 352.6 543.6Z" fill="#8FE3F9"/>
<path d="M358.6 539.6C410.7 539.6 458.7 524.3 497.1 498.6L486.6 473.9C464.6 422 412.4 388.1 354.5 388.1C296.6 388.1 244.4 422 222.4 473.9L213.8 494.3C253.1 522.6 303.6 539.6 358.6 539.6Z" fill="#B2EBF9"/>
<path d="M352.5 320.6L308.9 384.6L341.8 428.4C347.2 435.6 358.1 435.6 363.5 428.4L396.1 384.6L352.5 320.6Z" fill="#A4E0EA"/>
<path d="M352.6 519.6C231.1 519.6 131.9 433.9 125 325.8C124.7 329.8 124.6 333.8 124.6 337.8C124.6 451.4 226.7 543.6 352.6 543.6C478.5 543.6 580.6 451.5 580.6 337.8C580.6 333.8 580.5 329.8 580.2 325.8C573.3 433.9 474 519.6 352.6 519.6Z" fill="#7AD1E5"/>
<path d="M489.4 478.4C451.3 504.2 403.9 519.6 352.6 519.6C302.6 519.6 256.4 505.1 218.9 480.5L213.9 492.8C253.3 522 303.7 539.6 358.7 539.6C408.4 539.6 454.4 525.2 491.9 500.8C493.7 499.6 495.4 498.3 497.2 497L489.4 478.4Z" fill="#A4E0EA"/>
<path d="M119 338.5C125.4 351.6 134 363.8 144.8 374.7C197.1 427 282 427 334.3 374.7C378.1 330.9 385.2 264.4 355.8 213.2" fill="#7AD1E5"/>
<path d="M579.8 354.1C555.8 390.2 514.8 413.9 468.2 413.9C394.2 413.9 334.2 353.9 334.2 279.9C334.2 246.9 346.1 216.7 365.9 193.3" fill="#7AD1E5"/>
<path d="M352.6 543.6C478.521 543.6 580.6 451.46 580.6 337.8C580.6 224.14 478.521 132 352.6 132C226.679 132 124.6 224.14 124.6 337.8C124.6 451.46 226.679 543.6 352.6 543.6Z" stroke="#413D51" stroke-width="16" stroke-miterlimit="10" stroke-linecap="round" stroke-linejoin="round"/>
<path d="M352.5 292.6L308.9 356.6L352.7 414.9L396.2 356.6L352.5 292.6Z" fill="#413D51"/>
<path d="M352.5 292.6L308.9 356.6L352.7 414.9L396.2 356.6L352.5 292.6Z" stroke="#413D51" stroke-width="16" stroke-miterlimit="10" stroke-linecap="round" stroke-linejoin="round"/>
<path d="M451.5 154.2C421.5 140.2 387.4 132.3 351.5 132.3C315.6 132.3 281.5 140.2 251.5 154.2V294.3H451.5V154.2Z" fill="#413D51"/>
<path d="M464.3 168.2L573 164.9C557.3 204.2 555.2 263.3 568.9 327.9C551.5 364.7 514.5 390.8 471 392.1C409.2 394 357.5 345.4 355.7 283.5C353.8 221.7 402.4 170.1 464.3 168.2Z" fill="#413D51"/>
<path d="M464.3 168.2L573 164.9C557.3 204.2 555.2 263.3 568.9 327.9C551.5 364.7 514.5 390.8 471 392.1C409.2 394 357.5 345.4 355.7 283.5C353.8 221.7 402.4 170.1 464.3 168.2Z" stroke="#413D51" stroke-width="16" stroke-miterlimit="10" stroke-linecap="round" stroke-linejoin="round"/>
<path d="M468.2 392C530.056 392 580.2 341.856 580.2 280C580.2 218.144 530.056 168 468.2 168C406.344 168 356.2 218.144 356.2 280C356.2 341.856 406.344 392 468.2 392Z" fill="#F7E8AD"/>
<path d="M468.2 392C530.056 392 580.2 341.856 580.2 280C580.2 218.144 530.056 168 468.2 168C406.344 168 356.2 218.144 356.2 280C356.2 341.856 406.344 392 468.2 392Z" fill="#F7E8AD"/>
<path d="M547.4 200.8C525.9 179.3 497.7 168.4 469.5 168C490.7 172.1 511 182.3 527.4 198.8C571.1 242.5 571.1 313.4 527.4 357.2C505.2 379.4 476 390.3 447 390C482.3 396.8 520.1 386.5 547.4 359.2C591.1 315.4 591.1 244.5 547.4 200.8Z" fill="#F7D6A1"/>
<path opacity="0.7" d="M501.321 339.822C534.125 307.018 533.935 253.643 500.897 220.605C467.859 187.567 414.483 187.377 381.68 220.18C348.876 252.984 349.066 306.359 382.104 339.397C415.142 372.435 468.517 372.625 501.321 339.822Z" fill="white"/>
<path d="M562.2 226.9C559.1 222.9 553.1 211.9 549.4 208.2C505.4 164.8 434.5 165.2 391.1 209.3C382.5 218 375.6 227.8 370.5 238.3C432.2 216.6 499.8 221.8 562.2 226.9Z" fill="#EFCA92"/>
<path d="M468.2 392C530.056 392 580.2 341.856 580.2 280C580.2 218.144 530.056 168 468.2 168C406.344 168 356.2 218.144 356.2 280C356.2 341.856 406.344 392 468.2 392Z" stroke="#413D51" stroke-width="16" stroke-miterlimit="10" stroke-linecap="round" stroke-linejoin="round"/>
<path d="M468.2 392C530.056 392 580.2 341.856 580.2 280C580.2 218.144 530.056 168 468.2 168C406.344 168 356.2 218.144 356.2 280C356.2 341.856 406.344 392 468.2 392Z" stroke="#413D51" stroke-width="16" stroke-miterlimit="10" stroke-linecap="round" stroke-linejoin="round"/>
<path d="M557.5 212.4C554.4 208.4 551.1 204.5 547.4 200.8C503.7 157.1 432.8 157.1 389 200.8C380.3 209.5 373.4 219.2 368.2 229.6C430.2 208.4 495.1 206.8 557.5 212.4Z" fill="#413D51"/>
<path d="M413.7 330.4C436.896 330.4 455.7 311.596 455.7 288.4C455.7 265.204 436.896 246.4 413.7 246.4C390.504 246.4 371.7 265.204 371.7 288.4C371.7 311.596 390.504 330.4 413.7 330.4Z" fill="#413D51"/>
<path d="M389.9 302.7C397.632 302.7 403.9 296.432 403.9 288.7C403.9 280.968 397.632 274.7 389.9 274.7C382.168 274.7 375.9 280.968 375.9 288.7C375.9 296.432 382.168 302.7 389.9 302.7Z" fill="white"/>
<path d="M239.6 168.2L130.8 164.9C146.5 204.2 148.6 263.3 134.9 327.9C152.3 364.7 189.3 390.8 232.8 392.1C294.6 394 346.3 345.4 348.1 283.5C350 221.7 301.4 170.1 239.6 168.2Z" fill="#413D51"/>
<path d="M239.6 168.2L130.8 164.9C146.5 204.2 148.6 263.3 134.9 327.9C152.3 364.7 189.3 390.8 232.8 392.1C294.6 394 346.3 345.4 348.1 283.5C350 221.7 301.4 170.1 239.6 168.2Z" stroke="#413D51" stroke-width="16" stroke-miterlimit="10" stroke-linecap="round" stroke-linejoin="round"/>
<path d="M235.6 392C297.456 392 347.6 341.856 347.6 280C347.6 218.144 297.456 168 235.6 168C173.744 168 123.6 218.144 123.6 280C123.6 341.856 173.744 392 235.6 392Z" fill="#F7E8AD"/>
<path d="M235.6 392C297.456 392 347.6 341.856 347.6 280C347.6 218.144 297.456 168 235.6 168C173.744 168 123.6 218.144 123.6 280C123.6 341.856 173.744 392 235.6 392Z" fill="#F7E8AD"/>
<path d="M156.4 200.8C177.9 179.3 206.1 168.4 234.3 168C213.1 172.1 192.8 182.3 176.4 198.8C132.7 242.5 132.7 313.4 176.4 357.2C198.6 379.4 227.8 390.3 256.8 390C221.5 396.8 183.7 386.5 156.4 359.2C112.7 315.4 112.7 244.5 156.4 200.8Z" fill="#F7D6A1"/>
<path opacity="0.7" d="M321.707 339.418C354.745 306.38 354.935 253.004 322.131 220.201C289.327 187.397 235.952 187.587 202.914 220.625C169.876 253.663 169.686 307.038 202.49 339.842C235.294 372.646 288.669 372.456 321.707 339.418Z" fill="white"/>
<path opacity="0.89" d="M141.7 226.9C144.8 222.9 150.8 211.9 154.5 208.2C198.5 164.8 269.4 165.2 312.8 209.3C321.4 218 328.3 227.8 333.4 238.3C271.6 216.6 204 221.8 141.7 226.9Z" fill="#EFCA92"/>
<path d="M235.6 392C297.456 392 347.6 341.856 347.6 280C347.6 218.144 297.456 168 235.6 168C173.744 168 123.6 218.144 123.6 280C123.6 341.856 173.744 392 235.6 392Z" stroke="#413D51" stroke-width="16" stroke-miterlimit="10" stroke-linecap="round" stroke-linejoin="round"/>
<path d="M235.6 392C297.456 392 347.6 341.856 347.6 280C347.6 218.144 297.456 168 235.6 168C173.744 168 123.6 218.144 123.6 280C123.6 341.856 173.744 392 235.6 392Z" stroke="#413D51" stroke-width="16" stroke-miterlimit="10" stroke-linecap="round" stroke-linejoin="round"/>
<path d="M146.4 212.4C149.5 208.4 152.8 204.5 156.5 200.8C200.2 157.1 271.1 157.1 314.9 200.8C323.6 209.5 330.5 219.2 335.7 229.6C273.7 208.4 208.7 206.8 146.4 212.4Z" fill="#413D51"/>
<path d="M290.2 330.4C313.396 330.4 332.2 311.596 332.2 288.4C332.2 265.204 313.396 246.4 290.2 246.4C267.004 246.4 248.2 265.204 248.2 288.4C248.2 311.596 267.004 330.4 290.2 330.4Z" fill="#413D51"/>
<path d="M314 302.7C321.732 302.7 328 296.432 328 288.7C328 280.968 321.732 274.7 314 274.7C306.268 274.7 300 280.968 300 288.7C300 296.432 306.268 302.7 314 302.7Z" fill="white"/>
<path d="M298.7 568.6C289.9 568.6 282.7 561.4 282.7 552.6V534.6C282.7 525.8 289.9 518.6 298.7 518.6C307.5 518.6 314.7 525.8 314.7 534.6V552.6C314.7 561.4 307.6 568.6 298.7 568.6Z" fill="#413D51"/>
<path d="M266.7 568.6C257.9 568.6 250.7 561.4 250.7 552.6V534.6C250.7 525.8 257.9 518.6 266.7 518.6C275.5 518.6 282.7 525.8 282.7 534.6V552.6C282.7 561.4 275.6 568.6 266.7 568.6Z" fill="#413D51"/>
<path d="M330.5 568.6C321.7 568.6 314.5 561.4 314.5 552.6V534.6C314.5 525.8 321.7 518.6 330.5 518.6C339.3 518.6 346.5 525.8 346.5 534.6V552.6C346.5 561.4 339.3 568.6 330.5 568.6Z" fill="#413D51"/>
<path d="M372.7 568.6C363.9 568.6 356.7 561.4 356.7 552.6V534.6C356.7 525.8 363.9 518.6 372.7 518.6C381.5 518.6 388.7 525.8 388.7 534.6V552.6C388.7 561.4 381.5 568.6 372.7 568.6Z" fill="#413D51"/>
<path d="M404.5 568.6C395.7 568.6 388.5 561.4 388.5 552.6V534.6C388.5 525.8 395.7 518.6 404.5 518.6C413.3 518.6 420.5 525.8 420.5 534.6V552.6C420.5 561.4 413.3 568.6 404.5 568.6Z" fill="#413D51"/>
<path d="M436.5 568.6C427.7 568.6 420.5 561.4 420.5 552.6V534.6C420.5 525.8 427.7 518.6 436.5 518.6C445.3 518.6 452.5 525.8 452.5 534.6V552.6C452.5 561.4 445.3 568.6 436.5 568.6Z" fill="#413D51"/>
<path d="M342.7 437.9C342.7 446.3 335.9 453.1 327.5 453.1C319.1 453.1 312.3 446.3 312.3 437.9" stroke="#413D51" stroke-width="8" stroke-miterlimit="10" stroke-linecap="round" stroke-linejoin="round"/>
<path d="M389.2 437.9C389.2 446.3 382.4 453.1 374 453.1C365.6 453.1 358.8 446.3 358.8 437.9" stroke="#413D51" stroke-width="8" stroke-miterlimit="10" stroke-linecap="round" stroke-linejoin="round"/>
<path opacity="0.31" d="M173.8 399.1C171.6 403.8 166.1 405.9 161.3 403.7C156.5 401.5 154.5 396 156.7 391.2" stroke="#72C8D6" stroke-width="8" stroke-miterlimit="10" stroke-linecap="round" stroke-linejoin="round"/>
<path opacity="0.31" d="M203.6 414.6C201.4 419.3 195.9 421.4 191.1 419.2C186.4 417 184.3 411.5 186.5 406.7" stroke="#72C8D6" stroke-width="8" stroke-miterlimit="10" stroke-linecap="round" stroke-linejoin="round"/>
<path opacity="0.31" d="M186.3 426.5C184.1 431.2 178.6 433.3 173.8 431.1C169.1 428.9 167 423.4 169.2 418.6" stroke="#72C8D6" stroke-width="8" stroke-miterlimit="10" stroke-linecap="round" stroke-linejoin="round"/>
<path opacity="0.31" d="M212.5 446.4C210.3 451.1 204.8 453.2 200 451C195.3 448.8 193.2 443.3 195.4 438.5" stroke="#72C8D6" stroke-width="8" stroke-miterlimit="10" stroke-linecap="round" stroke-linejoin="round"/>
<path opacity="0.31" d="M232.5 428.4C230.3 433.1 224.8 435.2 220 433C215.3 430.8 213.2 425.3 215.4 420.5" stroke="#72C8D6" stroke-width="8" stroke-miterlimit="10" stroke-linecap="round" stroke-linejoin="round"/>
<path opacity="0.31" d="M534.5 401.1C536.7 405.8 542.2 407.9 547 405.7C551.8 403.5 553.8 398 551.6 393.2" stroke="#72C8D6" stroke-width="8" stroke-miterlimit="10" stroke-linecap="round" stroke-linejoin="round"/>
<path opacity="0.31" d="M504.8 416.6C507 421.3 512.5 423.4 517.3 421.2C522 419 524.1 413.5 521.9 408.7" stroke="#72C8D6" stroke-width="8" stroke-miterlimit="10" stroke-linecap="round" stroke-linejoin="round"/>
<path opacity="0.31" d="M522 428.5C524.2 433.2 529.7 435.3 534.5 433.1C539.2 430.9 541.3 425.4 539.1 420.6" stroke="#72C8D6" stroke-width="8" stroke-miterlimit="10" stroke-linecap="round" stroke-linejoin="round"/>
<path opacity="0.31" d="M495.9 448.4C498.1 453.1 503.6 455.2 508.4 453C513.1 450.8 515.2 445.3 513 440.5" stroke="#72C8D6" stroke-width="8" stroke-miterlimit="10" stroke-linecap="round" stroke-linejoin="round"/>
<path opacity="0.31" d="M475.9 430.4C478.1 435.1 483.6 437.2 488.4 435C493.1 432.8 495.2 427.3 493 422.5" stroke="#72C8D6" stroke-width="8" stroke-miterlimit="10" stroke-linecap="round" stroke-linejoin="round"/>
<path d="M319.5 474.4C319.5 482.8 312.7 489.6 304.3 489.6C295.9 489.6 289.1 482.8 289.1 474.4" stroke="#413D51" stroke-width="8" stroke-miterlimit="10" stroke-linecap="round" stroke-linejoin="round"/>
<path d="M366 474.4C366 482.8 359.2 489.6 350.8 489.6C342.4 489.6 335.6 482.8 335.6 474.4" stroke="#413D51" stroke-width="8" stroke-miterlimit="10" stroke-linecap="round" stroke-linejoin="round"/>
<path d="M412.5 474.4C412.5 482.8 405.7 489.6 397.3 489.6C388.9 489.6 382.1 482.8 382.1 474.4" stroke="#413D51" stroke-width="8" stroke-miterlimit="10" stroke-linecap="round" stroke-linejoin="round"/>
</svg>
